<!DOCTYPE svg PUBLIC "-//W3C//DTD SVG 1.1//EN" "http://www.w3.org/Graphics/SVG/1.1/DTD/svg11.dtd">
<!-- Uploaded to: SVG Repo, www.svgrepo.com, Transformed by: SVG Repo Mixer Tools -->
<svg width="800px" height="800px" viewBox="0 0 24 24" id="magicoon-Filled" xmlns="http://www.w3.org/2000/svg" fill="#000000">
<g id="SVGRepo_bgCarrier" stroke-width="0"/>
<g id="SVGRepo_tracerCarrier" stroke-linecap="round" stroke-linejoin="round"/>
<g id="SVGRepo_iconCarrier"> <defs> <style>.cls-1{fill:#34354d;}</style> </defs> <title>headphones</title> <g id="headphones-Filled"> <path id="headphones-Filled-2" data-name="headphones-Filled" class="cls-1" d="M18.5,15.5v4a2,2,0,0,1-4,0v-4a2,2,0,0,1,4,0Zm-11-2a2,2,0,0,0-2,2v4a2,2,0,0,0,4,0v-4A2,2,0,0,0,7.5,13.5ZM12,2A10.011,10.011,0,0,0,2,12v5a1,1,0,0,0,2,0V12a8,8,0,0,1,16,0v5a1,1,0,0,0,2,0V12A10.011,10.011,0,0,0,12,2Z"/> </g> </g>
</svg>